<?xml version="1.0" encoding="UTF-8"?>
<svg id="_图层_2" data-name="图层 2" xmlns="http://www.w3.org/2000/svg" viewBox="0 0 2407.59 674.81">
  <defs>
    <style>
      .cls-1 {
        fill: #f7f8f8;
      }
    </style>
  </defs>
  <g id="_图层_1-2" data-name="图层 1">
    <g>
      <path class="cls-1" d="m2401.82,89.28c-14.41-46.84-52.84-79.68-97.59-89.19v674.7c45.39-.19,85.38-29.88,98.76-73.26,3.04-9.85,4.56-20.03,4.6-30.11V127.68c0-12.89-1.9-25.85-5.78-38.4Z"/>
      <path class="cls-1" d="m1948.52,566.58c-9.62,3.28-19.74,4.84-29.9,4.84h-127.02c-7.91,0-15.82.72-23.61,2.21-.34.08-.72.15-1.06.23-20.53,4.03-40.19,13.12-56.99,27.07-23.15,19.24-38.21,45.55-43.72,73.88h100.72s150.07,0,150.07,0h11.94c17.68,0,35.44-2.62,52.62-7.91,7.79-2.4,15.36-5.32,22.66-8.75,35.21-16.31,64.33-43.8,82.66-78.48,1.44-2.74,2.81-5.48,4.07-8.25,11.06-23.73,16.65-49.43,16.65-75.24V127.68c0-12.89-1.9-25.85-5.78-38.44-14.41-46.84-52.81-79.73-97.6-89.24v255.31s0,78.82,0,78.82v161.93c.08,8.3-1.14,18.44-5.74,28.86-10.64,24.09-33.28,35.97-49.96,41.66Z"/>
      <path class="cls-1" d="m1546.61,89.28c-14.41-46.84-52.8-79.68-97.59-89.19v496.03c0,19.96-7.95,39.12-22.05,53.22-14.14,14.1-33.26,22.05-53.22,22.09h-211.67c-19.96-.04-39.08-7.98-53.22-22.09-14.1-14.1-22.05-33.26-22.05-53.22V.1c-44.78,9.5-83.18,42.35-97.59,89.19-3.88,12.55-5.78,25.51-5.78,38.4v370.58c.19,16.73,2.78,33.68,7.95,50.48,2.4,7.79,5.32,15.4,8.74,22.7,16.35,35.16,43.79,64.28,78.46,82.61,2.7,1.44,5.44,2.81,8.21,4.07,23.76,11.06,49.46,16.65,75.31,16.65v.04h211.6v-.04c25.85,0,51.55-5.59,75.31-16.65,2.78-1.25,5.51-2.62,8.21-4.07,34.67-18.32,62.12-47.44,78.46-82.61,3.42-7.3,6.35-14.9,8.74-22.7,5.17-16.8,7.76-33.76,7.95-50.48V127.68c0-12.89-1.9-25.85-5.78-38.4Z"/>
      <path class="cls-1" d="m789.32.07l-73.83,239.61-66.57,215.97-33.38,108.4c-1.35,4.4-5.42,7.39-10.01,7.39s-8.66-3-10.01-7.39l-33.42-108.4-79.61-258.36h0c-8.2-26.61-31.14-39.91-54.07-39.9-22.93,0-45.87,13.29-54.07,39.9h0s-79.61,258.36-79.61,258.36l-33.42,108.4c-1.35,4.39-5.42,7.39-10.01,7.39s-8.66-3-10.01-7.39l-33.38-108.4-66.57-215.97L67.53.07C13.28,29.08-12.61,92.64,5.98,151.3l129.44,420.15,7.07,23c12.36,40.14,45.51,69.57,85.46,77.93,7.6,1.6,15.4,2.43,23.38,2.43s15.78-.84,23.34-2.43c39.84-8.33,72.95-37.67,85.42-77.67l.15-.53,6.99-22.73,61.17-198.56v.03s.02-.03.02-.03l61.17,198.56,6.99,22.73.15.53c12.47,39.99,45.58,69.34,85.42,77.67,7.57,1.6,15.36,2.43,23.34,2.43s15.78-.84,23.38-2.43c39.95-8.36,73.1-37.79,85.46-77.93l7.07-23,129.44-420.15c18.59-58.66-7.3-122.22-61.55-151.23Z"/>
    </g>
  </g>
</svg>